<svg width="33" height="33" viewBox="0 0 33 33" fill="none" xmlns="http://www.w3.org/2000/svg">
<path d="M14.2689 21.8077L23.7592 12.3173L21.8746 10.4327L14.2689 18.0385L10.4323 14.2019L8.5477 16.0865L14.2689 21.8077ZM6.73039 28.2692C5.99001 28.2692 5.35619 28.0056 4.82895 27.4784C4.30171 26.9511 4.03809 26.3173 4.03809 25.5769V6.73076C4.03809 5.99038 4.30171 5.35656 4.82895 4.82932C5.35619 4.30207 5.99001 4.03845 6.73039 4.03845H25.5765C26.3169 4.03845 26.9507 4.30207 27.478 4.82932C28.0052 5.35656 28.2689 5.99038 28.2689 6.73076V25.5769C28.2689 26.3173 28.0052 26.9511 27.478 27.4784C26.9507 28.0056 26.3169 28.2692 25.5765 28.2692H6.73039Z" fill="#E2E2E2" fill-opacity="0.9"/>
</svg>
