<svg width="39" height="39" viewBox="0 0 39 39" fill="none" xmlns="http://www.w3.org/2000/svg">
<path d="M17.395 5.24649H5.03223C4.09542 5.24649 3.19699 5.61863 2.53456 6.28106C1.87214 6.94348 1.5 7.84191 1.5 8.77872V33.5043C1.5 34.4411 1.87214 35.3395 2.53456 36.002C3.19699 36.6644 4.09542 37.0365 5.03223 37.0365H29.7578C30.6946 37.0365 31.593 36.6644 32.2555 36.002C32.9179 35.3395 33.29 34.4411 33.29 33.5043V21.1415M30.6409 2.59732C31.3435 1.89472 32.2964 1.5 33.29 1.5C34.2837 1.5 35.2366 1.89472 35.9392 2.59732C36.6418 3.29992 37.0365 4.25286 37.0365 5.24649C37.0365 6.24012 36.6418 7.19306 35.9392 7.89566L19.1611 24.6737L12.0967 26.4398L13.8628 19.3754L30.6409 2.59732Z" stroke="#DDE7D5" stroke-width="3" stroke-linecap="round" stroke-linejoin="round"/>
</svg>
