<svg width="37" height="37" viewBox="0 0 37 37" fill="none" xmlns="http://www.w3.org/2000/svg">
<path d="M7.55208 31.7188C6.72135 31.7188 6.00391 31.4293 5.39974 30.8503C4.82075 30.2461 4.53125 29.5287 4.53125 28.6979V7.55208C4.53125 6.72136 4.82075 6.01649 5.39974 5.4375C6.00391 4.83333 6.72135 4.53125 7.55208 4.53125H28.6979C29.5286 4.53125 30.2335 4.83333 30.8125 5.4375C31.4167 6.01649 31.7188 6.72136 31.7188 7.55208V28.6979C31.7188 29.5287 31.4167 30.2461 30.8125 30.8503C30.2335 31.4293 29.5286 31.7188 28.6979 31.7188H7.55208ZM18.125 24.1667C19.0816 24.1667 19.9501 23.8898 20.7305 23.3359C21.5109 22.7821 22.0521 22.0521 22.3542 21.1458H28.6979V7.55208H7.55208V21.1458H13.8958C14.1979 22.0521 14.7392 22.7821 15.5195 23.3359C16.2999 23.8898 17.1684 24.1667 18.125 24.1667Z" fill="#E2E2E2" fill-opacity="0.8"/>
</svg>
