<svg width="37" height="37" viewBox="0 0 37 37" fill="none" xmlns="http://www.w3.org/2000/svg">
<path d="M24.167 6.04168H27.1878C27.989 6.04168 28.7574 6.35994 29.3239 6.92646C29.8904 7.49297 30.2087 8.26134 30.2087 9.06251V30.2083C30.2087 31.0095 29.8904 31.7779 29.3239 32.3444C28.7574 32.9109 27.989 33.2292 27.1878 33.2292H9.06283C8.26165 33.2292 7.49329 32.9109 6.92677 32.3444C6.36026 31.7779 6.04199 31.0095 6.04199 30.2083V9.06251C6.04199 8.26134 6.36026 7.49297 6.92677 6.92646C7.49329 6.35994 8.26165 6.04168 9.06283 6.04168H12.0837M13.5941 3.02084H22.6566C23.4908 3.02084 24.167 3.69708 24.167 4.53126V7.55209C24.167 8.38627 23.4908 9.06251 22.6566 9.06251H13.5941C12.7599 9.06251 12.0837 8.38627 12.0837 7.55209V4.53126C12.0837 3.69708 12.7599 3.02084 13.5941 3.02084Z" stroke="#E2E2E2" stroke-opacity="0.8" stroke-width="2" stroke-linecap="round" stroke-linejoin="round"/>
</svg>
