<svg width="37" height="37" viewBox="0 0 37 37" fill="none" xmlns="http://www.w3.org/2000/svg">
<path d="M32.0362 24.0005C31.0753 26.2729 29.5724 28.2753 27.6588 29.8327C25.7453 31.3901 23.4794 32.455 21.0592 32.9343C18.639 33.4136 16.1382 33.2928 13.7755 32.5824C11.4128 31.872 9.26008 30.5936 7.50557 28.859C5.75106 27.1244 4.44818 24.9865 3.71083 22.632C2.97347 20.2776 2.8241 17.7783 3.27577 15.3528C3.72744 12.9273 4.7664 10.6494 6.30181 8.71817C7.83723 6.78696 9.82235 5.26126 12.0836 4.27448M33.2295 18.125C33.2295 16.1415 32.8388 14.1774 32.0797 12.3449C31.3207 10.5124 30.2081 8.8473 28.8055 7.44474C27.403 6.04219 25.7379 4.92963 23.9054 4.17057C22.0729 3.41152 20.1088 3.02084 18.1253 3.02084V18.125H33.2295Z" stroke="#E2E2E2" stroke-opacity="0.8" stroke-width="4" stroke-linecap="round" stroke-linejoin="round"/>
</svg>
