<svg width="33" height="33" viewBox="0 0 33 33" fill="none" xmlns="http://www.w3.org/2000/svg">
<path d="M8.07738 12.1163V2.6925H24.2324V12.1163M8.07738 24.2325H5.38488C4.67079 24.2325 3.98594 23.9488 3.481 23.4439C2.97606 22.9389 2.69238 22.2541 2.69238 21.54V14.8088C2.69238 14.0947 2.97606 13.4098 3.481 12.9049C3.98594 12.3999 4.67079 12.1163 5.38488 12.1163H26.9249C27.639 12.1163 28.3238 12.3999 28.8288 12.9049C29.3337 13.4098 29.6174 14.0947 29.6174 14.8088V21.54C29.6174 22.2541 29.3337 22.9389 28.8288 23.4439C28.3238 23.9488 27.639 24.2325 26.9249 24.2325H24.2324M8.07738 18.8475H24.2324V29.6175H8.07738V18.8475Z" stroke="#E2E2E2" stroke-opacity="0.9" stroke-width="4" stroke-linecap="round" stroke-linejoin="round"/>
</svg>
