<svg width="37" height="37" viewBox="0 0 37 37" fill="none" xmlns="http://www.w3.org/2000/svg">
<path d="M24.9219 14.1979L11.3281 6.35885M4.93906 10.5125L18.125 18.1401L31.3109 10.5125M18.125 33.35V18.125M31.7187 24.1667V12.0833C31.7182 11.5536 31.5784 11.0333 31.3133 10.5747C31.0482 10.116 30.6671 9.73518 30.2083 9.47031L19.6354 3.42864C19.1762 3.16351 18.6553 3.02393 18.125 3.02393C17.5947 3.02393 17.0738 3.16351 16.6146 3.42864L6.04167 9.47031C5.5829 9.73518 5.20185 10.116 4.93674 10.5747C4.67163 11.0333 4.53179 11.5536 4.53125 12.0833V24.1667C4.53179 24.6964 4.67163 25.2167 4.93674 25.6753C5.20185 26.134 5.5829 26.5148 6.04167 26.7797L16.6146 32.8213C17.0738 33.0865 17.5947 33.2261 18.125 33.2261C18.6553 33.2261 19.1762 33.0865 19.6354 32.8213L30.2083 26.7797C30.6671 26.5148 31.0482 26.134 31.3133 25.6753C31.5784 25.2167 31.7182 24.6964 31.7187 24.1667Z" stroke="#E2E2E2" stroke-opacity="0.8" stroke-width="4" stroke-linecap="round" stroke-linejoin="round"/>
</svg>
