<svg width="37" height="37" viewBox="0 0 37 37" fill="none" xmlns="http://www.w3.org/2000/svg">
<path d="M31.7187 9.0625V30.2083C31.7187 31.0095 31.4005 31.7779 30.834 32.3444C30.2675 32.9109 29.4991 33.2292 28.6979 33.2292H7.55208C6.75091 33.2292 5.98255 32.9109 5.41603 32.3444C4.84952 31.7779 4.53125 31.0095 4.53125 30.2083V9.0625L9.0625 3.02084H27.1875L31.7187 9.0625ZM4.53125 9.0625H31.7187M24.1667 15.1042C24.1667 16.7065 23.5301 18.2432 22.3971 19.3763C21.2641 20.5093 19.7273 21.1458 18.125 21.1458C16.5226 21.1458 14.9859 20.5093 13.8529 19.3763C12.7199 18.2432 12.0833 16.7065 12.0833 15.1042" stroke="#E2E2E2" stroke-opacity="0.8" stroke-width="4" stroke-linecap="round" stroke-linejoin="round"/>
</svg>
