<svg width="37" height="37" viewBox="0 0 37 37" fill="none" xmlns="http://www.w3.org/2000/svg">
<path d="M30.208 18.125V33.2292H6.04134V18.125M18.1247 33.2292V10.5729M18.1247 10.5729H11.3278C10.3263 10.5729 9.36588 10.1751 8.65774 9.46695C7.94959 8.7588 7.55176 7.79835 7.55176 6.79689C7.55176 5.79542 7.94959 4.83497 8.65774 4.12682C9.36588 3.41868 10.3263 3.02084 11.3278 3.02084C16.6143 3.02084 18.1247 10.5729 18.1247 10.5729ZM18.1247 10.5729H24.9216C25.923 10.5729 26.8835 10.1751 27.5916 9.46695C28.2998 8.7588 28.6976 7.79835 28.6976 6.79689C28.6976 5.79542 28.2998 4.83497 27.5916 4.12682C26.8835 3.41868 25.923 3.02084 24.9216 3.02084C19.6351 3.02084 18.1247 10.5729 18.1247 10.5729ZM3.02051 10.5729H33.2288V18.125H3.02051V10.5729Z" stroke="#E2E2E2" stroke-opacity="0.8" stroke-width="2.5" stroke-linecap="round" stroke-linejoin="round"/>
</svg>
