<svg width="37" height="37" viewBox="0 0 37 37" fill="none" xmlns="http://www.w3.org/2000/svg">
<g clip-path="url(#clip0_338_148)">
<path d="M18.125 1.51042V34.7396M25.6771 7.55209H14.349C12.9469 7.55209 11.6023 8.10905 10.6109 9.10046C9.61946 10.0919 9.0625 11.4365 9.0625 12.8385C9.0625 14.2406 9.61946 15.5852 10.6109 16.5766C11.6023 17.568 12.9469 18.125 14.349 18.125H21.901C23.3031 18.125 24.6477 18.682 25.6391 19.6734C26.6305 20.6648 27.1875 22.0094 27.1875 23.4115C27.1875 24.8135 26.6305 26.1582 25.6391 27.1496C24.6477 28.141 23.3031 28.6979 21.901 28.6979H9.0625" stroke="#E2E2E2" stroke-opacity="0.8" stroke-width="4" stroke-linecap="round" stroke-linejoin="round"/>
</g>
<defs>
<clipPath id="clip0_338_148">
<rect width="36.25" height="36.25" fill="white"/>
</clipPath>
</defs>
</svg>
