<svg width="37" height="37" viewBox="0 0 37 37" fill="none" xmlns="http://www.w3.org/2000/svg">
<path d="M24.1663 31.7187V7.55208C24.1663 6.75091 23.8481 5.98255 23.2816 5.41603C22.715 4.84952 21.9467 4.53125 21.1455 4.53125H15.1038C14.3027 4.53125 13.5343 4.84952 12.9678 5.41603C12.4013 5.98255 12.083 6.75091 12.083 7.55208V31.7187M6.04134 10.5729H30.208C31.8764 10.5729 33.2288 11.9254 33.2288 13.5937V28.6979C33.2288 30.3663 31.8764 31.7187 30.208 31.7187H6.04134C4.37298 31.7187 3.02051 30.3663 3.02051 28.6979V13.5937C3.02051 11.9254 4.37298 10.5729 6.04134 10.5729Z" stroke="#E2E2E2" stroke-opacity="0.8" stroke-width="4" stroke-linecap="round" stroke-linejoin="round"/>
</svg>
