<svg width="37" height="37" viewBox="0 0 37 37" fill="none" xmlns="http://www.w3.org/2000/svg">
<g clip-path="url(#clip0_310_622)">
<path d="M25.6774 31.7188V28.6979C25.6774 27.0956 25.0409 25.5588 23.9078 24.4258C22.7748 23.2928 21.2381 22.6563 19.6357 22.6562H7.55241C5.95006 22.6563 4.41334 23.2928 3.28031 24.4258C2.14727 25.5588 1.51074 27.0956 1.51074 28.6979V31.7188M34.7399 31.7188V28.6979C34.7389 27.3593 34.2934 26.0589 33.4732 25.0009C32.6531 23.9429 31.5048 23.1873 30.2087 22.8526M24.167 4.7276C25.4666 5.06035 26.6185 5.81616 27.441 6.87589C28.2636 7.93561 28.7101 9.23896 28.7101 10.5805C28.7101 11.922 28.2636 13.2253 27.441 14.2851C26.6185 15.3448 25.4666 16.1006 24.167 16.4333M19.6357 10.5729C19.6357 13.9096 16.9308 16.6146 13.5941 16.6146C10.2574 16.6146 7.55241 13.9096 7.55241 10.5729C7.55241 7.2362 10.2574 4.53125 13.5941 4.53125C16.9308 4.53125 19.6357 7.2362 19.6357 10.5729Z" stroke="#E2E2E2" stroke-opacity="0.8" stroke-width="3.5" stroke-linecap="round" stroke-linejoin="round"/>
</g>
<defs>
<clipPath id="clip0_310_622">
<rect width="36.25" height="36.25" fill="white"/>
</clipPath>
</defs>
</svg>
