<svg width="26" height="26" viewBox="0 0 26 26" fill="none" xmlns="http://www.w3.org/2000/svg">
<g clip-path="url(#clip0_34_78)">
<path d="M1.07812 1.07843H5.39185L8.28205 15.5186C8.38066 16.0151 8.65077 16.4611 9.04509 16.7786C9.4394 17.096 9.9328 17.2646 10.4389 17.2549H20.9213C21.4274 17.2646 21.9208 17.096 22.3151 16.7786C22.7094 16.4611 22.9795 16.0151 23.0781 15.5186L24.8036 6.47059H6.47028M10.784 22.6471C10.784 23.2427 10.3012 23.7255 9.70558 23.7255C9.10998 23.7255 8.62715 23.2427 8.62715 22.6471C8.62715 22.0515 9.10998 21.5686 9.70558 21.5686C10.3012 21.5686 10.784 22.0515 10.784 22.6471ZM22.6468 22.6471C22.6468 23.2427 22.1639 23.7255 21.5683 23.7255C20.9727 23.7255 20.4899 23.2427 20.4899 22.6471C20.4899 22.0515 20.9727 21.5686 21.5683 21.5686C22.1639 21.5686 22.6468 22.0515 22.6468 22.6471Z" stroke="#B6CCA5" stroke-width="3.5" stroke-linecap="round" stroke-linejoin="round"/>
</g>
<defs>
<clipPath id="clip0_34_78">
<rect width="25.8824" height="25.8824" fill="white"/>
</clipPath>
</defs>
</svg>
